<?xml version="1.0" standalone="no"?>
<!DOCTYPE svg PUBLIC "-//W3C//DTD SVG 20010904//EN"
 "http://www.w3.org/TR/2001/REC-SVG-20010904/DTD/svg10.dtd">
<svg version="1.0" xmlns="http://www.w3.org/2000/svg"
 width="300.000000pt" height="300.000000pt" viewBox="0 0 300.000000 300.000000"
 preserveAspectRatio="xMidYMid meet">
<metadata>
Created by potrace 1.11, written by Peter Selinger 2001-2013
</metadata>
<g transform="translate(0.000000,300.000000) scale(0.100000,-0.100000)"
fill="#000000" stroke="none">
<path d="M1962 2493 c-16 -21 -57 -78 -90 -128 -34 -49 -75 -108 -90 -130 -61
-87 -1018 -1454 -1060 -1515 -25 -36 -71 -101 -102 -145 -75 -107 -78 -113
-49 -90 102 82 175 141 179 145 3 3 63 53 135 110 71 58 135 110 141 115 6 6
100 82 209 170 109 88 278 226 376 306 98 81 199 162 223 180 47 36 45 31 61
169 2 19 7 53 9 75 3 22 8 65 11 95 3 30 8 71 10 90 3 19 7 51 9 70 2 19 6 58
10 85 3 28 8 73 11 100 6 60 14 129 20 170 2 17 7 57 10 90 4 33 9 63 12 68
13 21 -9 2 -35 -30z"/>
<path d="M2415 2249 c-28 -23 -70 -58 -94 -78 -24 -20 -56 -47 -70 -60 -14
-13 -51 -43 -82 -67 -31 -25 -56 -50 -56 -57 -1 -13 -13 -118 -18 -157 -2 -14
-7 -54 -11 -90 -4 -36 -8 -72 -9 -80 -1 -8 -5 -46 -10 -85 -4 -38 -8 -75 -9
-81 -2 -13 -42 -48 -192 -169 -54 -44 -159 -129 -234 -190 -74 -60 -144 -116
-154 -125 -88 -70 -84 -71 49 -14 72 30 144 61 160 69 17 7 116 50 220 95 105
45 208 89 230 99 22 10 81 36 130 56 50 21 91 39 93 41 2 1 5 17 7 35 2 19 9
79 15 134 6 55 13 111 15 125 2 14 7 57 11 95 3 39 8 79 10 90 2 11 6 43 9 70
5 47 9 76 21 185 5 52 12 104 19 160 3 22 5 40 3 40 -2 0 -26 -18 -53 -41z"/>
</g>
</svg>
