<svg version="1.1" xmlns="http://www.w3.org/2000/svg" viewBox="0 0 100 100">
  <polygon points="0,0 0,66.667 36.445,66.667 36.445,100 100,100 100,0 "/>
  <path d="M22.571,75.231v20.031h6.653v4.097h-11.36V75.231H22.571z"/>
  <path d="M14.602,77.281l-2.208,3.263c-0.979-1.322-2.185-1.984-3.614-1.984c-0.769,0-1.451,0.261-2.05,0.784
           c-0.596,0.523-0.896,1.169-0.896,1.938c0,0.531,0.177,1.008,0.528,1.422c0.352,0.417,0.809,0.758,1.377,1.026
           c0.563,0.266,1.188,0.539,1.869,0.814c0.681,0.276,1.361,0.602,2.033,0.977c0.672,0.371,1.29,0.809,1.855,1.309
           c0.565,0.503,1.027,1.175,1.377,2.019c0.352,0.843,0.527,1.808,0.527,2.897c0,2.453-0.713,4.442-2.143,5.966
           C11.828,99.237,9.897,100,7.465,100c-3.073,0-5.547-1.567-7.424-4.703l3.041-2.976c0.341,0.98,0.912,1.812,1.711,2.494
           c0.8,0.686,1.68,1.027,2.64,1.027c0.937,0,1.69-0.342,2.254-1.027c0.565-0.683,0.849-1.503,0.849-2.464
           c0-1.363-0.779-2.418-2.336-3.167c-0.257-0.127-0.875-0.385-1.857-0.768c-1.77-0.727-3.109-1.573-4.016-2.545
           c-0.907-0.97-1.36-2.318-1.36-4.048c0-2.027,0.672-3.738,2.016-5.137c1.344-1.396,3.019-2.097,5.024-2.097
           c1.109,0,2.309,0.253,3.599,0.753C12.901,75.847,13.898,76.492,14.602,77.281z"/>
</svg>
