<svg xmlns="http://www.w3.org/2000/svg" viewBox="0 0 1920 1080">
  <polygon opacity="0.7" fill="#df67a7" points="0,666.5 264,682 0,703 "/>
  <polygon opacity="0.7" fill="#be61a5" points="405.5,574 264,682 85.088,671.496 "/>
  <polygon opacity="0.7" fill="#ab5da5" points="653,498 269.887,677.507 455.5,536.5 "/>
  <polygon opacity="0.7" fill="#9c65aa" points="820,660.5 455.5,536.5 653,498 "/>
  <polygon opacity="0.7" fill="#805fa9" points="1013,438 820,660.5 653,498 "/>
  <polygon opacity="0.7" fill="#7763ac" points="1152.5,544.5 820,660.5 1013,438 "/>
  <polygon opacity="0.7" fill="#5f5ca9" points="1305.5,574.5 1197,578.5 1013,438 "/>
  <polygon opacity="0.7" fill="#5f6cb2" points="1512.5,656.5 1197,578.5 1326,574.5 "/>
  <polygon opacity="0.7" fill="#618ac7" points="1593.584,554.566 1512.5,656.5 1326,574.5 "/>
  <polygon opacity="0.7" fill="#5da2d8" points="1767.5,502.5 1512.5,656.5 1635,502.5 "/>
  <polygon opacity="0.7" fill="#5ebae9" points="1877.811,594.727 1635,502.5 1767.5,502.5 "/>
  <polygon opacity="0.7" fill="#55c8e4" points="1920,630 1767.5,502.5 1920,585.5 "/>
</svg>
